<?xml version="1.0" encoding="utf-8"?>
<!-- Generator: Adobe Illustrator 15.1.0, SVG Export Plug-In . SVG Version: 6.00 Build 0)  -->
<!DOCTYPE svg PUBLIC "-//W3C//DTD SVG 1.1//EN" "http://www.w3.org/Graphics/SVG/1.1/DTD/svg11.dtd">
<svg version="1.1"
	 id="svg17" sodipodi:docname="logo.svg" inkscape:version="0.92.3 (2405546, 2018-03-11)" xmlns:dc="http://purl.org/dc/elements/1.1/" xmlns:cc="http://creativecommons.org/ns#" xmlns:rdf="http://www.w3.org/1999/02/22-rdf-syntax-ns#" xmlns:svg="http://www.w3.org/2000/svg" xmlns:sodipodi="http://sodipodi.sourceforge.net/DTD/sodipodi-0.dtd" xmlns:inkscape="http://www.inkscape.org/namespaces/inkscape"
	 xmlns="http://www.w3.org/2000/svg" xmlns:xlink="http://www.w3.org/1999/xlink" x="0px" y="0px" width="388.5px" height="224.5px"
	 viewBox="0 0 388.5 224.5" enable-background="new 0 0 388.5 224.5" xml:space="preserve">
<sodipodi:namedview  id="namedview19" inkscape:current-layer="svg17" inkscape:window-y="40" inkscape:window-x="0" inkscape:window-height="692" inkscape:window-width="1366" inkscape:pageshadow="2" inkscape:pageopacity="0" bordercolor="#666666" pagecolor="#ffffff" inkscape:cy="316.64671" inkscape:cx="388.5" guidetolerance="10" gridtolerance="10" inkscape:zoom="1.04375" objecttolerance="10" showgrid="false" borderopacity="1" inkscape:window-maximized="1">
	</sodipodi:namedview>
<title  id="title2">my vector image</title>
<rect id="backgroundrect" x="-0.238" y="6.686" fill="#FFFFFF" width="388.977" height="222.275"/>
<g id="g15" transform="translate(-90.05988,-121.67665)">
	<title  id="title5">Layer 1</title>
	<path id="svg_1" inkscape:connector-curvature="0" fill="#4A90D6" stroke="#222222" stroke-width="2" stroke-linejoin="round" d="
		M120.672,243.744c0-46.132,78.314-83.5,175-83.5c96.685,0,175,37.368,175,83.5c0,46.133-78.315,83.5-175,83.5
		C198.987,327.244,120.672,289.876,120.672,243.744z"/>
	<path id="svg_2" inkscape:connector-curvature="0" fill="#1AEB1A" stroke="#222222" stroke-width="2" stroke-linejoin="round" d="
		M209,239.5c0-22.375,4.252-40.5,9.5-40.5c5.249,0,9.5,18.125,9.5,40.5c0,22.376-4.251,40.5-9.5,40.5
		C213.252,280,209,261.876,209,239.5z"/>
	<path id="svg_4" inkscape:connector-curvature="0" fill="#1AEB1A" stroke="#222222" stroke-width="2" stroke-linejoin="round" d="
		M230.554,198.021c0-3.591,11.412-6.5,25.5-6.5c14.089,0,25.5,2.909,25.5,6.5c0,3.591-11.411,6.5-25.5,6.5
		C241.966,204.521,230.554,201.612,230.554,198.021z"/>
	<path id="svg_6" inkscape:connector-curvature="0" fill="#1AEB1A" stroke="#222222" stroke-width="2" stroke-linejoin="round" d="
		M236.235,232.542c0-2.486,6.937-4.5,15.5-4.5s15.5,2.014,15.5,4.5s-6.937,4.5-15.5,4.5S236.235,235.028,236.235,232.542z"/>
	<path id="svg_8" inkscape:connector-curvature="0" fill="#1AEB1A" stroke="#222222" stroke-width="2" stroke-linejoin="round" d="
		M303.076,251.403c0-20.442,2.908-37,6.5-37c3.591,0,6.5,16.558,6.5,37c0,20.442-2.909,37-6.5,37
		C305.984,288.403,303.076,271.846,303.076,251.403z"/>
	<path id="svg_10" inkscape:connector-curvature="0" fill="#1AEB1A" stroke="#222222" stroke-width="2" stroke-linejoin="round" d="
		M321.034,215.223c0-3.039,12.307-5.5,27.5-5.5s27.5,2.461,27.5,5.5c0,3.039-12.307,5.5-27.5,5.5S321.034,218.262,321.034,215.223z"
		/>
	<path id="svg_12" inkscape:connector-curvature="0" fill="#1AEB1A" stroke="#222222" stroke-width="2" stroke-linejoin="round" d="
		M328.596,248.861c0-2.486,7.832-4.5,17.5-4.5c9.669,0,17.5,2.014,17.5,4.5s-7.831,4.5-17.5,4.5
		C336.428,253.361,328.596,251.348,328.596,248.861z"/>
	<path id="svg_14" inkscape:connector-curvature="0" fill="#1AEB1A" stroke="#222222" stroke-width="2" stroke-linejoin="round" d="
		M320.395,288.5c0-3.591,11.859-6.5,26.5-6.5s26.5,2.909,26.5,6.5c0,3.591-11.859,6.5-26.5,6.5S320.395,292.091,320.395,288.5z"/>
</g>
<g id="flowRoot3728">
</g>
<g id="flowRoot3740">
</g>
</svg>
